<svg width="171" height="171" viewBox="0 0 171 171" fill="none" xmlns="http://www.w3.org/2000/svg">
<path d="M76.6787 4.98183C82.0181 1.8991 88.5966 1.8991 93.936 4.98183L150.557 37.672C155.896 40.7547 159.186 46.4518 159.186 52.6173V117.998C159.186 124.163 155.896 129.86 150.557 132.943L93.936 165.633C88.5966 168.716 82.0181 168.716 76.6787 165.633L20.0577 132.943C14.7183 129.86 11.429 124.163 11.429 117.998V52.6173C11.429 46.4518 14.7183 40.7547 20.0577 37.672L76.6787 4.98183Z" fill="url(#paint0_linear_523_700)"/>
<path d="M57.499 93.7452C58.3884 92.963 59.7506 93.0803 60.4932 94.003C61.2356 94.9257 61.0586 96.2809 60.1045 96.9825L21.7344 125.197L57.499 93.7452ZM82.6582 82.8555C83.2927 81.8237 84.654 81.5191 85.668 82.1817L151.071 124.916L83.415 85.8458C82.3661 85.24 82.0238 83.8874 82.6582 82.8555ZM75.7969 68.7715C79.5776 66.7708 83.9042 66.0445 88.1309 66.7022C92.3573 67.36 96.2581 69.3661 99.252 72.421C102.246 75.476 104.173 79.4173 104.745 83.6563L98.9277 84.4415C98.5247 81.4563 97.168 78.6808 95.0596 76.5294C92.9513 74.3782 90.2047 72.9652 87.2285 72.502C84.2522 72.0388 81.2054 72.5502 78.543 73.959C75.8805 75.368 73.7442 77.5998 72.4531 80.3214C71.1622 83.0427 70.785 86.1085 71.3779 89.0616C71.971 92.0149 73.5026 94.6978 75.7441 96.71C77.9857 98.7222 80.8175 99.9566 83.8174 100.229C86.8172 100.501 89.8248 99.7959 92.3916 98.2198L95.4639 103.221C91.8189 105.459 87.548 106.46 83.2881 106.074C79.0281 105.688 75.0064 103.936 71.8232 101.078C68.6401 98.2209 66.4652 94.4115 65.623 90.2178C64.7809 86.0241 65.3171 81.6704 67.1504 77.8057C68.9837 73.9412 72.0163 70.7723 75.7969 68.7715ZM87.1182 58.5714C87.1672 59.7311 86.2399 60.6983 85.0791 60.6983C83.9184 60.6982 82.991 59.731 83.04 58.5714L85.0791 10.546L87.1182 58.5714Z" fill="url(#paint1_linear_523_700)"/>
<defs>
<linearGradient id="paint0_linear_523_700" x1="64.3584" y1="-0.000376184" x2="135.545" y2="170.416" gradientUnits="userSpaceOnUse">
<stop stop-color="white"/>
<stop offset="0.461538" stop-color="#F9F9F9"/>
<stop offset="1" stop-color="#E5E9FE" stop-opacity="0.368627"/>
</linearGradient>
<linearGradient id="paint1_linear_523_700" x1="58.2693" y1="119.863" x2="131.392" y2="76.1503" gradientUnits="userSpaceOnUse">
<stop stop-color="#C1CADB"/>
<stop offset="0.742346" stop-color="#DEE4EE"/>
<stop offset="1" stop-color="white"/>
</linearGradient>
</defs>
</svg>
