<svg width="1120" height="206" viewBox="0 0 1120 206" fill="none" xmlns="http://www.w3.org/2000/svg">
<path d="M807.861 92.9111C807.861 83.8985 809.101 76.1317 811.582 69.6113C814.253 63.2831 818.071 58.4882 823.032 55.2285C827.993 51.9689 833.91 50.3389 840.779 50.3389C851.275 50.3389 859.385 53.9828 865.11 61.2695C870.835 68.7484 873.697 79.2962 873.697 92.9111V205.094H928.084V91.4727C928.084 72.8712 924.554 56.6674 917.493 42.8604C910.432 29.0532 900.319 18.4095 887.151 10.9307C873.984 3.6439 858.527 0 840.779 0C823.223 1.04595e-05 807.861 3.64391 794.693 10.9307C781.526 18.4095 771.317 29.0533 764.065 42.8604C757.005 56.6674 753.475 72.8712 753.475 91.4727V205.094H807.861V92.9111ZM194.647 3.73926H140.833L130.056 42.5723H63.1602L52.3828 3.73926H0L60.3975 205.094H134.249L194.647 3.73926ZM356.287 154.755L265.833 54.0781V52.6396H362.012V3.73926H201.714V54.0781L292.168 154.755V156.193H206.008V205.094H356.287V154.755ZM441.436 3.73926H387.908V205.094H441.436V3.73926ZM599.199 67.0225H600.63L648.72 205.094H717.705V3.73926H666.181V130.305H664.749L620.381 3.73926H577.444L533.076 130.305H531.646V3.73926H480.121V205.094H551.109L599.199 67.0225ZM1120 157.632H1061.32V3.73926H1006.93V157.632H948.256V205.094H1120V157.632ZM75.5352 87.1582H117.681L97.3232 160.508H95.8926L75.5352 87.1582Z" fill="black"/>
</svg>
