<svg width="1120" height="205" viewBox="0 0 1120 205" fill="none" xmlns="http://www.w3.org/2000/svg">
<path d="M807.861 111.636C807.861 120.604 809.101 128.334 811.582 134.822C814.253 141.12 818.071 145.891 823.032 149.135C827.993 152.378 833.91 154 840.779 154C851.275 154 859.385 150.374 865.11 143.123C870.835 135.681 873.697 125.184 873.697 111.636V0H928.084V113.067C928.084 131.578 924.554 147.703 917.493 161.442C910.432 175.182 900.319 185.773 887.151 193.216C873.984 200.467 858.527 204.094 840.779 204.094C823.223 204.094 807.861 200.467 794.693 193.216C781.526 185.773 771.317 175.182 764.065 161.442C757.005 147.703 753.475 131.578 753.475 113.067V0H807.861V111.636ZM194.647 200.372H140.833L130.056 161.729H63.1602L52.3828 200.372H0L60.3975 0H134.249L194.647 200.372ZM356.287 50.0938L265.833 150.279V151.711H362.012V200.372H201.714V150.279L292.168 50.0938V48.6621H206.008V0H356.287V50.0938ZM441.436 200.372H387.908V0H441.436V200.372ZM599.199 137.398H600.63L648.72 0H717.705V200.372H666.181V74.4238H664.749L620.381 200.372H577.444L533.076 74.4238H531.646V200.372H480.121V0H551.109L599.199 137.398ZM1120 47.2305H1061.32V200.372H1006.93V47.2305H948.256V0H1120V47.2305ZM75.5342 117.361H117.682L97.3232 44.3682H95.8926L75.5342 117.361Z" fill="black"/>
</svg>
