<svg width="144" height="144" viewBox="0 0 144 144" fill="none" xmlns="http://www.w3.org/2000/svg">
<rect width="143.08" height="143.08" rx="17.2574" fill="url(#paint0_linear_523_716)"/>
<path d="M41.2354 36.3828C46.731 31.6651 53.2862 28.2771 60.3936 26.54C70.0849 24.1716 80.2823 24.9975 89.4658 28.8955C98.6494 32.7937 106.328 39.5552 111.356 48.1719C116.385 56.7886 118.495 66.7997 117.371 76.7129L103.769 75.1709C104.56 68.19 103.074 61.1402 99.5332 55.0723C95.992 49.0042 90.5844 44.2422 84.1172 41.4971C77.65 38.752 70.4684 38.17 63.6436 39.8379C58.9724 40.9795 54.639 43.1332 50.9355 46.1162L65.4795 60.7109L82.0801 60.415L82.3877 77.6777L108.282 103.663C110.79 106.179 110.68 110.282 108.043 112.661C105.405 115.04 101.313 114.727 99.0674 111.975L74.8701 82.3066L60.7109 82.5605L60.3896 64.5527L47.749 49.0547C47.2292 49.6021 46.7271 50.1687 46.2441 50.7539C41.7721 56.1725 39.1704 62.8909 38.8271 69.9082C38.4839 76.9255 40.417 83.8662 44.3389 89.6953C48.2608 95.5244 53.9614 99.9298 60.5908 102.256C67.2203 104.582 74.4237 104.703 81.1279 102.603L85.2217 115.667C75.7016 118.65 65.4725 118.477 56.0586 115.174C46.6446 111.871 38.5497 105.614 32.9805 97.3369C27.4113 89.0594 24.6659 79.204 25.1533 69.2393C25.6407 59.2745 29.3351 49.7336 35.6855 42.0391C36.7434 40.7574 37.8665 39.5394 39.0469 38.3867L20.1758 15.249L41.2354 36.3828Z" fill="url(#paint1_linear_523_716)"/>
<defs>
<linearGradient id="paint0_linear_523_716" x1="53.972" y1="-0.000366661" x2="24.483" y2="147.66" gradientUnits="userSpaceOnUse">
<stop stop-color="white"/>
<stop offset="0.461538" stop-color="#F9F9F9"/>
<stop offset="1" stop-color="#E5E9FE" stop-opacity="0.368627"/>
</linearGradient>
<linearGradient id="paint1_linear_523_716" x1="47.7146" y1="113.014" x2="107.382" y2="82.9506" gradientUnits="userSpaceOnUse">
<stop stop-color="#C1CADB"/>
<stop offset="0.742346" stop-color="#DEE4EE"/>
<stop offset="1" stop-color="white"/>
</linearGradient>
</defs>
</svg>
