<svg width="189" height="165" viewBox="0 0 189 165" fill="none" xmlns="http://www.w3.org/2000/svg">
<path d="M79.1197 10.187C85.3815 -0.658698 101.036 -0.658675 107.298 10.187L180.548 137.06C186.809 147.905 178.982 161.462 166.459 161.462H19.9586C7.43514 161.462 -0.392021 147.905 5.86973 137.06L79.1197 10.187Z" fill="url(#paint0_linear_523_707)"/>
<path d="M32.1514 146.786C31.2941 147.79 29.7666 147.86 28.8213 146.938L27.7051 145.85C26.7599 144.929 26.7903 143.4 27.7715 142.517L62.4258 111.34L32.1514 146.786ZM160.086 142.517C161.067 143.4 161.097 144.929 160.152 145.85L159.035 146.938C158.09 147.859 156.563 147.79 155.706 146.786L125.432 111.34L160.086 142.517ZM92.5068 76.1942C97.4369 76.0342 102.287 77.4715 106.334 80.2919C110.381 83.1123 113.407 87.1649 114.964 91.8456C116.52 96.5263 116.523 101.584 114.971 106.266C113.419 110.949 110.395 115.005 106.351 117.829L102.476 112.279C105.324 110.29 107.453 107.434 108.546 104.137C109.639 100.839 109.637 97.2775 108.541 93.9813C107.445 90.6851 105.314 87.8308 102.464 85.8446C99.6141 83.8585 96.1983 82.8462 92.7266 82.9589C89.2547 83.0716 85.9114 84.3038 83.1963 86.4706C80.4815 88.6373 78.5392 91.6231 77.6592 94.9833C76.7792 98.3436 77.009 101.899 78.3135 105.118C79.618 108.337 81.9275 111.05 84.8984 112.849L81.3916 118.639C77.1727 116.083 73.8926 112.232 72.04 107.66C70.1877 103.089 69.8619 98.041 71.1113 93.2694C72.3609 88.4975 75.1191 84.2565 78.9746 81.1796C82.83 78.1027 87.5768 76.3542 92.5068 76.1942ZM94.3115 23.1005C95.6315 23.1005 96.6764 24.2169 96.5898 25.5341L93.5322 72.0487L90.4746 25.5341C90.388 24.217 91.4331 23.1006 92.7529 23.1005H94.3115Z" fill="url(#paint1_linear_523_707)"/>
<defs>
<linearGradient id="paint0_linear_523_707" x1="117.2" y1="6.56772" x2="39.4401" y2="178.065" gradientUnits="userSpaceOnUse">
<stop stop-color="white"/>
<stop offset="0.461538" stop-color="#F9F9F9"/>
<stop offset="1" stop-color="#E5E9FE" stop-opacity="0.368627"/>
</linearGradient>
<linearGradient id="paint1_linear_523_707" x1="64.8188" y1="141.795" x2="142.354" y2="97.6236" gradientUnits="userSpaceOnUse">
<stop stop-color="#C1CADB"/>
<stop offset="0.742346" stop-color="#DEE4EE"/>
<stop offset="1" stop-color="white"/>
</linearGradient>
</defs>
</svg>
